<svg version="1.0" preserveAspectRatio="xMidYMid meet" viewBox="30.6774 14.184331376958527 241.56900000000002 43.54838580645161" zoomAndPan="magnify" xmlns:xlink="http://www.w3.org/1999/xlink" xmlns="http://www.w3.org/2000/svg" style="max-height: 500px" width="241.56900000000002" height="43.54838580645161"><defs><g/></defs><g fill-opacity="1" fill="#000000"><g transform="translate(29.777268, 32.802802)"><g><path d="M 5.3125 -17.40625 L 5.3125 -3.15625 L 10.125 -3.15625 L 10.125 0 L 1.984375 0 L 1.984375 -17.40625 Z M 5.3125 -17.40625"/></g></g></g><g fill-opacity="1" fill="#000000"><g transform="translate(41.966333, 32.802802)"><g><path d="M 13.328125 0 L 12 -3.59375 L 4.78125 -3.59375 L 3.4375 0 L 0 0 L 6.71875 -17.40625 L 10.0625 -17.40625 L 16.765625 0 Z M 6.015625 -6.828125 L 10.78125 -6.828125 L 8.390625 -13.234375 Z M 6.015625 -6.828125"/></g></g></g><g fill-opacity="1" fill="#000000"><g transform="translate(60.261505, 32.802802)"><g><path d="M 5.3125 -17.40625 L 5.3125 -3.15625 L 10.125 -3.15625 L 10.125 0 L 1.984375 0 L 1.984375 -17.40625 Z M 5.3125 -17.40625"/></g></g></g><g fill-opacity="1" fill="#000000"><g transform="translate(72.450571, 32.802802)"><g><path d="M 1.984375 -17.40625 L 5.3125 -17.40625 L 5.3125 0 L 1.984375 0 Z M 1.984375 -17.40625"/></g></g></g><g fill-opacity="1" fill="#000000"><g transform="translate(81.271584, 32.802802)"><g><path d="M 3.375 -14.15625 L 0.265625 -14.15625 L 0.265625 -17.40625 L 9.890625 -17.40625 L 9.890625 -14.15625 L 6.6875 -14.15625 L 6.6875 0 L 3.375 0 Z M 3.375 -14.15625"/></g></g></g><g fill-opacity="1" fill="#000000"><g transform="translate(92.976034, 32.802802)"><g><path d="M 1.984375 -17.40625 L 5.3125 -17.40625 L 5.3125 -10.859375 L 11.171875 -10.859375 L 11.171875 -17.40625 L 14.484375 -17.40625 L 14.484375 0 L 11.171875 0 L 11.171875 -7.609375 L 5.3125 -7.609375 L 5.3125 0 L 1.984375 0 Z M 1.984375 -17.40625"/></g></g></g><g fill-opacity="1" fill="#000000"><g transform="translate(110.980437, 32.802802)"><g/></g></g><g fill-opacity="1" fill="#000000"><g transform="translate(119.292615, 32.802802)"><g><path d="M 13.328125 0 L 12 -3.59375 L 4.78125 -3.59375 L 3.4375 0 L 0 0 L 6.71875 -17.40625 L 10.0625 -17.40625 L 16.765625 0 Z M 6.015625 -6.828125 L 10.78125 -6.828125 L 8.390625 -13.234375 Z M 6.015625 -6.828125"/></g></g></g><g fill-opacity="1" fill="#000000"><g transform="translate(137.587787, 32.802802)"><g><path d="M 12.625 -17.40625 L 15.953125 -17.40625 L 15.953125 0 L 12.75 0 L 5.3125 -11.390625 L 5.3125 0 L 1.984375 0 L 1.984375 -17.40625 L 5.15625 -17.40625 L 12.625 -5.984375 Z M 12.625 -17.40625"/></g></g></g><g fill-opacity="1" fill="#000000"><g transform="translate(157.046029, 32.802802)"><g><path d="M 6.1875 -17.40625 C 9.34375 -17.40625 11.734375 -16.675781 13.359375 -15.21875 C 14.984375 -13.757812 15.796875 -11.59375 15.796875 -8.71875 C 15.796875 -5.664062 14.984375 -3.445312 13.359375 -2.0625 C 11.734375 -0.6875 9.359375 0 6.234375 0 L 1.984375 0 L 1.984375 -17.40625 Z M 6.8125 -3.25 C 8.632812 -3.25 10.03125 -3.703125 11 -4.609375 C 11.96875 -5.515625 12.453125 -6.910156 12.453125 -8.796875 C 12.453125 -9.941406 12.207031 -10.914062 11.71875 -11.71875 C 11.238281 -12.519531 10.546875 -13.125 9.640625 -13.53125 C 8.734375 -13.945312 7.660156 -14.15625 6.421875 -14.15625 L 5.3125 -14.15625 L 5.3125 -3.25 Z M 6.8125 -3.25"/></g></g></g><g fill-opacity="1" fill="#000000"><g transform="translate(175.486579, 32.802802)"><g/></g></g><g fill-opacity="1" fill="#000000"><g transform="translate(183.798763, 32.802802)"><g><path d="M 5.265625 0.4375 C 4.335938 0.4375 3.46875 0.226562 2.65625 -0.1875 C 1.84375 -0.613281 1.101562 -1.242188 0.4375 -2.078125 L 2.6875 -4.3125 C 3.175781 -3.789062 3.59375 -3.410156 3.9375 -3.171875 C 4.28125 -2.929688 4.664062 -2.8125 5.09375 -2.8125 C 5.914062 -2.8125 6.328125 -3.441406 6.328125 -4.703125 L 6.328125 -17.40625 L 9.640625 -17.40625 L 9.640625 -4.84375 C 9.640625 -3.175781 9.296875 -1.878906 8.609375 -0.953125 C 7.921875 -0.0234375 6.804688 0.4375 5.265625 0.4375 Z M 5.265625 0.4375"/></g></g></g><g fill-opacity="1" fill="#000000"><g transform="translate(196.957054, 32.802802)"><g><path d="M 5.375 -7.53125 L 0.25 -17.40625 L 3.8125 -17.40625 L 7.046875 -10.828125 L 10.25 -17.40625 L 13.796875 -17.40625 L 8.703125 -7.53125 L 8.703125 0 L 5.375 0 Z M 5.375 -7.53125"/></g></g></g><g fill-opacity="1" fill="#000000"><g transform="translate(212.514178, 32.802802)"><g><path d="M 10.25 0.40625 C 8.550781 0.40625 7.003906 0 5.609375 -0.8125 C 4.222656 -1.625 3.128906 -2.726562 2.328125 -4.125 C 1.535156 -5.53125 1.140625 -7.0625 1.140625 -8.71875 C 1.140625 -10.40625 1.546875 -11.945312 2.359375 -13.34375 C 3.179688 -14.738281 4.285156 -15.835938 5.671875 -16.640625 C 7.054688 -17.441406 8.566406 -17.84375 10.203125 -17.84375 C 11.804688 -17.84375 13.296875 -17.441406 14.671875 -16.640625 C 16.054688 -15.835938 17.160156 -14.738281 17.984375 -13.34375 C 18.816406 -11.945312 19.234375 -10.382812 19.234375 -8.65625 C 19.234375 -6.96875 18.832031 -5.429688 18.03125 -4.046875 C 17.238281 -2.671875 16.15625 -1.582031 14.78125 -0.78125 C 13.40625 0.0078125 11.894531 0.40625 10.25 0.40625 Z M 10.234375 -2.765625 C 11.265625 -2.765625 12.210938 -3.023438 13.078125 -3.546875 C 13.941406 -4.078125 14.625 -4.789062 15.125 -5.6875 C 15.632812 -6.59375 15.890625 -7.585938 15.890625 -8.671875 C 15.890625 -9.742188 15.644531 -10.734375 15.15625 -11.640625 C 14.664062 -12.554688 13.984375 -13.285156 13.109375 -13.828125 C 12.234375 -14.378906 11.253906 -14.65625 10.171875 -14.65625 C 9.140625 -14.65625 8.1875 -14.398438 7.3125 -13.890625 C 6.445312 -13.390625 5.757812 -12.679688 5.25 -11.765625 C 4.738281 -10.847656 4.484375 -9.8125 4.484375 -8.65625 C 4.484375 -7.507812 4.742188 -6.484375 5.265625 -5.578125 C 5.796875 -4.679688 6.492188 -3.988281 7.359375 -3.5 C 8.234375 -3.007812 9.191406 -2.765625 10.234375 -2.765625 Z M 10.234375 -2.765625"/></g></g></g><g fill-opacity="1" fill="#000000"><g transform="translate(234.395473, 32.802802)"><g><path d="M 3.375 -14.15625 L 0.265625 -14.15625 L 0.265625 -17.40625 L 9.890625 -17.40625 L 9.890625 -14.15625 L 6.6875 -14.15625 L 6.6875 0 L 3.375 0 Z M 3.375 -14.15625"/></g></g></g><g fill-opacity="1" fill="#000000"><g transform="translate(246.099918, 32.802802)"><g><path d="M 1.984375 -17.40625 L 5.3125 -17.40625 L 5.3125 -10.859375 L 11.171875 -10.859375 L 11.171875 -17.40625 L 14.484375 -17.40625 L 14.484375 0 L 11.171875 0 L 11.171875 -7.609375 L 5.3125 -7.609375 L 5.3125 0 L 1.984375 0 Z M 1.984375 -17.40625"/></g></g></g><g fill-opacity="1" fill="#000000"><g transform="translate(264.104315, 32.802802)"><g><path d="M 1.984375 -17.40625 L 5.3125 -17.40625 L 5.3125 0 L 1.984375 0 Z M 1.984375 -17.40625"/></g></g></g><g fill-opacity="1" fill="#000000"><g transform="translate(272.933127, 32.802802)"><g/></g></g><g fill-opacity="1" fill="#000000"><g transform="translate(33.146689, 55.995505)"><g><path d="M 11.859375 0 L 9.734375 -4.546875 L 3.65625 -4.546875 L 1.546875 0 L 0.09375 0 L 6.5625 -13.84375 L 6.890625 -13.84375 L 13.296875 0 Z M 4.28125 -5.859375 L 9.125 -5.859375 L 6.703125 -11.046875 Z M 4.28125 -5.859375"/></g></g></g><g fill-opacity="1" fill="#000000"><g transform="translate(60.832886, 55.995505)"><g><path d="M 5.625 -13.84375 C 7.207031 -13.84375 8.390625 -13.515625 9.171875 -12.859375 C 9.960938 -12.203125 10.359375 -11.300781 10.359375 -10.15625 C 10.359375 -9.332031 10.15625 -8.644531 9.75 -8.09375 C 9.351562 -7.539062 8.796875 -7.125 8.078125 -6.84375 C 7.359375 -6.570312 6.515625 -6.4375 5.546875 -6.4375 L 10.546875 0 L 8.828125 0 L 3.9375 -6.4375 L 3.0625 -6.4375 L 3.0625 0 L 1.671875 0 L 1.671875 -13.84375 Z M 5.546875 -7.796875 C 6.617188 -7.796875 7.445312 -7.988281 8.03125 -8.375 C 8.613281 -8.757812 8.90625 -9.351562 8.90625 -10.15625 C 8.90625 -10.863281 8.65625 -11.429688 8.15625 -11.859375 C 7.65625 -12.285156 6.90625 -12.5 5.90625 -12.5 L 3.0625 -12.5 L 3.0625 -7.796875 Z M 5.546875 -7.796875"/></g></g></g><g fill-opacity="1" fill="#000000"><g transform="translate(86.533742, 55.995505)"><g><path d="M 8.546875 0.328125 C 7.035156 0.328125 5.710938 0.00390625 4.578125 -0.640625 C 3.453125 -1.296875 2.585938 -2.175781 1.984375 -3.28125 C 1.378906 -4.394531 1.078125 -5.632812 1.078125 -7 C 1.078125 -8.351562 1.398438 -9.570312 2.046875 -10.65625 C 2.691406 -11.75 3.582031 -12.609375 4.71875 -13.234375 C 5.851562 -13.867188 7.128906 -14.1875 8.546875 -14.1875 C 9.804688 -14.1875 10.945312 -13.9375 11.96875 -13.4375 C 13 -12.945312 13.847656 -12.226562 14.515625 -11.28125 L 13.421875 -10.453125 C 12.828125 -11.234375 12.113281 -11.828125 11.28125 -12.234375 C 10.457031 -12.640625 9.550781 -12.84375 8.5625 -12.84375 C 7.46875 -12.84375 6.460938 -12.585938 5.546875 -12.078125 C 4.628906 -11.566406 3.894531 -10.859375 3.34375 -9.953125 C 2.800781 -9.046875 2.53125 -8.023438 2.53125 -6.890625 C 2.53125 -5.753906 2.796875 -4.734375 3.328125 -3.828125 C 3.859375 -2.929688 4.585938 -2.222656 5.515625 -1.703125 C 6.453125 -1.191406 7.492188 -0.9375 8.640625 -0.9375 C 9.597656 -0.9375 10.484375 -1.128906 11.296875 -1.515625 C 12.117188 -1.910156 12.851562 -2.484375 13.5 -3.234375 L 14.59375 -2.40625 C 13.882812 -1.507812 13.015625 -0.828125 11.984375 -0.359375 C 10.953125 0.0976562 9.804688 0.328125 8.546875 0.328125 Z M 8.546875 0.328125"/></g></g></g><g fill-opacity="1" fill="#000000"><g transform="translate(116.513683, 55.995505)"><g><path d="M 1.671875 -13.84375 L 3.0625 -13.84375 L 3.0625 -8.046875 L 10.125 -8.046875 L 10.125 -13.84375 L 11.515625 -13.84375 L 11.515625 0 L 10.125 0 L 10.125 -6.6875 L 3.0625 -6.6875 L 3.0625 0 L 1.671875 0 Z M 1.671875 -13.84375"/></g></g></g><g fill-opacity="1" fill="#000000"><g transform="translate(143.968581, 55.995505)"><g><path d="M 1.671875 -13.84375 L 3.0625 -13.84375 L 3.0625 0 L 1.671875 0 Z M 1.671875 -13.84375"/></g></g></g><g fill-opacity="1" fill="#000000"><g transform="translate(162.980957, 55.995505)"><g><path d="M 3.4375 -12.5 L 0.3125 -12.5 L 0.3125 -13.84375 L 7.90625 -13.84375 L 7.90625 -12.5 L 4.8125 -12.5 L 4.8125 0 L 3.4375 0 Z M 3.4375 -12.5"/></g></g></g><g fill-opacity="1" fill="#000000"><g transform="translate(185.482142, 55.995505)"><g><path d="M 1.671875 -13.84375 L 9.578125 -13.84375 L 9.578125 -12.515625 L 3.0625 -12.515625 L 3.0625 -8.140625 L 9.578125 -8.140625 L 9.578125 -6.828125 L 3.0625 -6.828125 L 3.0625 -1.34375 L 9.578125 -1.34375 L 9.578125 0 L 1.671875 0 Z M 1.671875 -13.84375"/></g></g></g><g fill-opacity="1" fill="#000000"><g transform="translate(210.084325, 55.995505)"><g><path d="M 8.546875 0.328125 C 7.035156 0.328125 5.710938 0.00390625 4.578125 -0.640625 C 3.453125 -1.296875 2.585938 -2.175781 1.984375 -3.28125 C 1.378906 -4.394531 1.078125 -5.632812 1.078125 -7 C 1.078125 -8.351562 1.398438 -9.570312 2.046875 -10.65625 C 2.691406 -11.75 3.582031 -12.609375 4.71875 -13.234375 C 5.851562 -13.867188 7.128906 -14.1875 8.546875 -14.1875 C 9.804688 -14.1875 10.945312 -13.9375 11.96875 -13.4375 C 13 -12.945312 13.847656 -12.226562 14.515625 -11.28125 L 13.421875 -10.453125 C 12.828125 -11.234375 12.113281 -11.828125 11.28125 -12.234375 C 10.457031 -12.640625 9.550781 -12.84375 8.5625 -12.84375 C 7.46875 -12.84375 6.460938 -12.585938 5.546875 -12.078125 C 4.628906 -11.566406 3.894531 -10.859375 3.34375 -9.953125 C 2.800781 -9.046875 2.53125 -8.023438 2.53125 -6.890625 C 2.53125 -5.753906 2.796875 -4.734375 3.328125 -3.828125 C 3.859375 -2.929688 4.585938 -2.222656 5.515625 -1.703125 C 6.453125 -1.191406 7.492188 -0.9375 8.640625 -0.9375 C 9.597656 -0.9375 10.484375 -1.128906 11.296875 -1.515625 C 12.117188 -1.910156 12.851562 -2.484375 13.5 -3.234375 L 14.59375 -2.40625 C 13.882812 -1.507812 13.015625 -0.828125 11.984375 -0.359375 C 10.953125 0.0976562 9.804688 0.328125 8.546875 0.328125 Z M 8.546875 0.328125"/></g></g></g><g fill-opacity="1" fill="#000000"><g transform="translate(240.06426, 55.995505)"><g><path d="M 3.4375 -12.5 L 0.3125 -12.5 L 0.3125 -13.84375 L 7.90625 -13.84375 L 7.90625 -12.5 L 4.8125 -12.5 L 4.8125 0 L 3.4375 0 Z M 3.4375 -12.5"/></g></g></g><g fill-opacity="1" fill="#000000"><g transform="translate(262.565445, 55.995505)"><g><path d="M 4.671875 0.34375 C 3.742188 0.34375 2.941406 0.0976562 2.265625 -0.390625 C 1.597656 -0.878906 1.003906 -1.609375 0.484375 -2.578125 L 1.65625 -3.296875 C 2.070312 -2.535156 2.519531 -1.960938 3 -1.578125 C 3.488281 -1.191406 4.003906 -1 4.546875 -1 C 5.023438 -1 5.457031 -1.101562 5.84375 -1.3125 C 6.238281 -1.53125 6.546875 -1.816406 6.765625 -2.171875 C 6.992188 -2.535156 7.109375 -2.929688 7.109375 -3.359375 C 7.109375 -3.773438 6.988281 -4.164062 6.75 -4.53125 C 6.519531 -4.90625 6.175781 -5.285156 5.71875 -5.671875 C 5.269531 -6.066406 4.488281 -6.710938 3.375 -7.609375 C 2.875 -8.015625 2.484375 -8.367188 2.203125 -8.671875 C 1.929688 -8.984375 1.722656 -9.316406 1.578125 -9.671875 C 1.441406 -10.023438 1.375 -10.453125 1.375 -10.953125 C 1.375 -11.566406 1.519531 -12.117188 1.8125 -12.609375 C 2.101562 -13.109375 2.503906 -13.492188 3.015625 -13.765625 C 3.535156 -14.046875 4.101562 -14.1875 4.71875 -14.1875 C 5.488281 -14.1875 6.15625 -13.988281 6.71875 -13.59375 C 7.28125 -13.207031 7.820312 -12.65625 8.34375 -11.9375 L 7.234375 -11.0625 C 6.929688 -11.445312 6.664062 -11.753906 6.4375 -11.984375 C 6.207031 -12.222656 5.945312 -12.410156 5.65625 -12.546875 C 5.363281 -12.691406 5.039062 -12.765625 4.6875 -12.765625 C 4.300781 -12.765625 3.96875 -12.679688 3.6875 -12.515625 C 3.40625 -12.359375 3.1875 -12.144531 3.03125 -11.875 C 2.882812 -11.601562 2.8125 -11.316406 2.8125 -11.015625 C 2.8125 -10.578125 2.941406 -10.164062 3.203125 -9.78125 C 3.460938 -9.40625 3.832031 -9.035156 4.3125 -8.671875 C 5.34375 -7.929688 6.132812 -7.316406 6.6875 -6.828125 C 7.25 -6.335938 7.703125 -5.804688 8.046875 -5.234375 C 8.390625 -4.671875 8.5625 -4.050781 8.5625 -3.375 C 8.5625 -2.726562 8.390625 -2.117188 8.046875 -1.546875 C 7.703125 -0.972656 7.234375 -0.515625 6.640625 -0.171875 C 6.054688 0.171875 5.398438 0.34375 4.671875 0.34375 Z M 4.671875 0.34375"/></g></g></g></svg>